<?xml version="1.0" encoding="UTF-8" standalone="no"?>
<!-- Created with Inkscape (http://www.inkscape.org/) -->

<svg
   xmlns:dc="http://purl.org/dc/elements/1.1/"
   xmlns:cc="http://creativecommons.org/ns#"
   xmlns:rdf="http://www.w3.org/1999/02/22-rdf-syntax-ns#"
   xmlns:svg="http://www.w3.org/2000/svg"
   xmlns="http://www.w3.org/2000/svg"
   xmlns:xlink="http://www.w3.org/1999/xlink"
   xmlns:sodipodi="http://sodipodi.sourceforge.net/DTD/sodipodi-0.dtd"
   xmlns:inkscape="http://www.inkscape.org/namespaces/inkscape"
   version="1.1"
   id="svg947"
   width="626"
   height="626"
   viewBox="0 0 626 626"
   sodipodi:docname="strzalka.svg"
   inkscape:version="0.92.1 r15371">
  <sodipodi:namedview
     pagecolor="#ffffff"
     bordercolor="#666666"
     borderopacity="1"
     objecttolerance="10"
     gridtolerance="10"
     guidetolerance="10"
     inkscape:pageopacity="0"
     inkscape:pageshadow="2"
     inkscape:window-width="1954"
     inkscape:window-height="1515"
     id="namedview949"
     showgrid="false"
     inkscape:zoom="2.132616"
     inkscape:cx="348.92277"
     inkscape:cy="292.58093"
     inkscape:window-x="425"
     inkscape:window-y="0"
     inkscape:window-maximized="0"
     inkscape:current-layer="svg947" />
  <metadata
     id="metadata953">
    <rdf:RDF>
      <cc:Work
         rdf:about="">
        <dc:format>image/svg+xml</dc:format>
        <dc:type
           rdf:resource="http://purl.org/dc/dcmitype/StillImage" />
        <dc:title></dc:title>
      </cc:Work>
    </rdf:RDF>
  </metadata>
  <defs
     id="defs951" />
  <image
     y="1.8756319"
     x="-1.8756317"
     id="image955"
     xlink:href="C:\Users\Madzia\none.jpg"
     preserveAspectRatio="none"
     height="626"
     width="626" />
  <path
     style="opacity:1;vector-effect:none;fill:#ffeeaa;fill-opacity:1;stroke:#000006;stroke-width:1.06334972;stroke-linecap:butt;stroke-linejoin:miter;stroke-miterlimit:4;stroke-dasharray:none;stroke-dashoffset:0;stroke-opacity:1;paint-order:normal"
     d="m 261.70594,533.86266 c -0.38684,-0.23141 -2.18042,-1.09023 -3.98571,-1.90848 -1.80529,-0.81825 -3.64875,-1.68043 -4.09658,-1.91594 -0.44782,-0.23551 -1.03731,-0.4282 -1.30996,-0.4282 -0.27265,0 -1.0668,-0.54406 -1.76477,-1.20902 -0.69796,-0.66496 -2.42957,-2.01679 -3.84802,-3.00407 -1.41845,-0.98727 -3.82584,-2.97532 -5.34975,-4.41787 -1.52393,-1.44255 -3.05374,-2.62282 -3.39958,-2.62282 -0.34586,0 -0.62882,-0.1968 -0.62882,-0.43731 0,-0.24052 -0.36927,-0.56296 -0.82059,-0.71654 -0.45133,-0.15358 -1.86241,-1.22284 -3.13575,-2.37614 -1.27333,-1.1533 -2.45804,-2.09691 -2.63268,-2.09691 -0.17463,0 -1.03189,-0.64565 -1.90501,-1.43479 -0.87312,-0.78914 -2.90629,-2.28511 -4.51816,-3.32439 -1.61187,-1.03927 -2.93068,-2.08831 -2.93068,-2.33118 0,-0.24288 -0.36926,-0.58142 -0.82058,-0.75232 -0.45133,-0.1709 -1.06097,-0.53354 -1.35477,-0.80587 -0.2938,-0.27233 -1.12432,-0.91716 -1.8456,-1.43296 -0.72128,-0.5158 -1.88292,-1.41259 -2.58141,-1.99286 -0.69849,-0.58027 -1.3973,-1.05504 -1.5529,-1.05504 -0.15559,0 -1.06588,-0.73853 -2.02285,-1.64118 -0.95698,-0.90265 -2.01251,-1.64118 -2.34563,-1.64118 -0.33312,0 -0.60567,-0.211 -0.60567,-0.4689 0,-0.2579 -0.23186,-0.46891 -0.51523,-0.46891 -0.28338,0 -1.10173,-0.58027 -1.81857,-1.2895 -1.86156,-1.8418 -2.70489,-2.46176 -3.3487,-2.46176 -0.31026,0 -1.11295,-0.61475 -1.78376,-1.36611 -0.67081,-0.75136 -2.3777,-2.15759 -3.79309,-3.12496 -1.41538,-0.96737 -2.64376,-1.93519 -2.72973,-2.1507 -0.086,-0.21551 -0.42881,-0.39185 -0.76188,-0.39185 -0.33307,0 -1.5441,-0.89678 -2.69119,-1.99285 -1.14708,-1.09608 -2.70331,-2.30496 -3.45828,-2.68641 -0.75498,-0.38146 -1.91903,-1.27824 -2.58678,-1.99286 -0.66775,-0.71462 -1.45903,-1.29931 -1.7584,-1.29931 -0.29937,0 -0.54431,-0.16551 -0.54431,-0.3678 0,-0.2023 -0.58028,-0.7193 -1.2895,-1.14889 -0.70922,-0.4296 -1.92252,-1.33744 -2.69622,-2.01743 -0.7737,-0.67999 -1.98699,-1.58004 -2.69622,-2.00011 -0.70922,-0.42007 -1.28949,-0.92928 -1.28949,-1.13158 0,-0.20229 -0.31652,-0.3678 -0.70336,-0.3678 -0.38685,0 -0.70337,-0.21101 -0.70337,-0.46891 0,-0.2579 -0.211,-0.46891 -0.4689,-0.46891 -0.2579,0 -0.84531,-0.36926 -1.30535,-0.82059 -0.46004,-0.45132 -1.53331,-1.34811 -2.38504,-1.99285 -0.85173,-0.64475 -1.83181,-1.43603 -2.17796,-1.75841 -0.34616,-0.32237 -0.83757,-0.58613 -1.09203,-0.58613 -0.25446,0 -1.06013,-0.63303 -1.79037,-1.40673 -0.73025,-0.77369 -1.59217,-1.40672 -1.91538,-1.40672 -0.32321,0 -0.58766,-0.1938 -0.58766,-0.43066 0,-0.23687 -0.76163,-0.90138 -1.69252,-1.47671 -0.9309,-0.57532 -2.2497,-1.56435 -2.93068,-2.19785 -0.68098,-0.6335 -2.76795,-2.21092 -4.63772,-3.50539 -1.86977,-1.29447 -3.39958,-2.52402 -3.39958,-2.73232 0,-0.20831 -0.36927,-0.49745 -0.82059,-0.64254 -0.45133,-0.14509 -1.55912,-0.89734 -2.46177,-1.67168 -0.90265,-0.77433 -1.85218,-1.41873 -2.11008,-1.43198 -0.2579,-0.0133 -1.31294,-0.85779 -2.34454,-1.87674 -1.0316,-1.01895 -2.2449,-1.97236 -2.69622,-2.11868 -0.45132,-0.14633 -0.82059,-0.46283 -0.82059,-0.70336 0,-0.24051 -0.3389,-0.4373 -0.7531,-0.4373 -0.41421,0 -1.1562,-0.51245 -1.64887,-1.13878 -0.49267,-0.62633 -1.68358,-1.61748 -2.64648,-2.20256 -0.96289,-0.58508 -1.85621,-1.18042 -1.98516,-1.32299 -0.60507,-0.66894 -5.12344,-4.24492 -5.36361,-4.24492 -0.1495,0 -0.93422,-0.63302 -1.74382,-1.40672 -0.8096,-0.7737 -1.65172,-1.40673 -1.87136,-1.40673 -0.21965,0 -0.77113,-0.36926 -1.22552,-0.82058 -2.00868,-1.99517 -5.19693,-4.3374 -5.90407,-4.3374 -0.42477,0 -0.7723,-0.25738 -0.7723,-0.57196 0,-0.69517 -2.702,-3.07274 -3.946,-3.47221 -0.49396,-0.15862 -1.35843,-0.73788 -1.92105,-1.28724 -1.32212,-1.29096 -3.61218,-3.21449 -4.53874,-3.81229 -1.14479,-0.7386 -5.628991,-4.21839 -7.178248,-5.57039 -0.773698,-0.6752 -1.589527,-1.22788 -1.812957,-1.2282 -0.22343,-3.1e-4 -1.659764,-1.16112 -3.191854,-2.57956 -1.532091,-1.41845 -3.045129,-2.579 -3.362308,-2.579 -0.317178,0 -1.554372,-0.89678 -2.749322,-1.99285 -1.194951,-1.09607 -3.596921,-3.0479 -5.337717,-4.3374 -1.740792,-1.28949 -3.392936,-2.55555 -3.67143,-2.81344 -0.278494,-0.2579 -1.700785,-1.35829 -3.160654,-2.44531 -1.459864,-1.08702 -3.182551,-2.46597 -3.828195,-3.06433 -0.645639,-0.59836 -1.77074,-1.39705 -2.500229,-1.77486 -0.729489,-0.37781 -1.960921,-1.34582 -2.736513,-2.15112 -0.775597,-0.80531 -2.728977,-2.34298 -4.340847,-3.41706 -1.61187,-1.07407 -2.930673,-2.12035 -2.930673,-2.32506 0,-0.20471 -0.571861,-0.67162 -1.270801,-1.03757 -1.17014,-0.61267 -2.411367,-1.61505 -5.69878,-4.6022 -0.679968,-0.61785 -2.39685,-1.89878 -3.815295,-2.84651 -1.418446,-0.94772 -3.584988,-2.71055 -4.814538,-3.91738 -1.22955,-1.20683 -2.554799,-2.19424 -2.944999,-2.19424 -0.390199,0 -1.388778,-0.77371 -2.219063,-1.71935 -0.830285,-0.94565 -2.104357,-2.08104 -2.831271,-2.5231 -0.726914,-0.44207 -2.20398,-1.55035 -3.282368,-2.46286 -1.078389,-0.91251 -3.059449,-2.57298 -4.402355,-3.68993 -6.270408,-5.21535 -8.514244,-7.14695 -10.687767,-9.20052 -1.289496,-1.21834 -2.884475,-2.49148 -3.544397,-2.8292 -0.659922,-0.33772 -1.5039557,-1.11162 -1.8756307,-1.71978 -0.3716745,-0.60815 -1.7835663,-2.26442 -3.1375372,-3.6806 -1.3539709,-1.41618 -2.4617653,-2.90911 -2.4617653,-3.31763 0,-0.40851 -0.2110085,-0.74275 -0.4689077,-0.74275 -0.2578992,0 -0.4689077,-0.31938 -0.4689077,-0.70973 0,-0.39035 -0.2110084,-1.12888 -0.4689077,-1.64118 -0.2578992,-0.5123 -0.6799161,-1.3506 -0.9378153,-1.8629 -0.25789923,-0.5123 -0.46890768,-1.33929 -0.46890768,-1.83776 0,-0.49847 -0.33169277,-2.20103 -0.73709506,-3.78347 -0.6791746,-2.65108 -0.6737363,-3.17911 0.0692078,-6.71981 0.44346658,-2.11345 0.9861678,-4.0431 1.20600274,-4.2881 0.2198349,-0.245 0.3996999,-0.7779 0.3996999,-1.18421 0,-1.32797 2.5594791,-5.99563 4.3471066,-7.92771 0.9617812,-1.0395 1.7491883,-2.05745 1.7497932,-2.26211 0.00191,-0.64562 2.5801351,-3.42001 3.1782001,-3.42001 0.314579,0 0.571961,-0.21101 0.571961,-0.46891 0,-0.25789 0.309089,-0.4689 0.686864,-0.4689 0.377775,0 0.894986,-0.38888 1.149359,-0.86419 0.254373,-0.47529 1.686104,-1.77938 3.181625,-2.89796 1.495521,-1.11858 2.88521,-2.30751 3.088199,-2.64206 0.202988,-0.33456 1.355516,-1.28698 2.561173,-2.11649 1.205657,-0.82951 2.833148,-2.12574 3.616646,-2.88052 0.783498,-0.75476 2.163071,-1.92715 3.065718,-2.60529 0.902648,-0.67815 1.876108,-1.444 2.163245,-1.7019 0.287138,-0.2579 1.432015,-1.20744 2.544172,-2.11008 1.112157,-0.90265 2.367097,-1.9705 2.788757,-2.37301 0.421658,-0.40251 1.233099,-1.05855 1.803201,-1.45786 0.570102,-0.39932 1.826579,-1.45699 2.792171,-2.35039 0.965593,-0.8934 2.38541,-2.03094 3.15515,-2.52786 0.76974,-0.49692 2.158135,-1.69477 3.085325,-2.6619 0.92719,-0.96712 1.92948,-1.7584 2.227311,-1.7584 0.297832,0 0.541514,-0.21101 0.541514,-0.46891 0,-0.2579 0.212837,-0.4689 0.472968,-0.4689 0.706213,0 3.278293,-2.41225 3.278293,-3.07458 0,-0.31626 0.474769,-0.69795 1.055042,-0.84819 1.017624,-0.26348 1.996684,-1.01088 5.509665,-4.20597 0.902648,-0.82097 2.210708,-1.85778 2.906797,-2.30403 0.696093,-0.44624 2.114304,-1.64323 3.15158,-2.65997 1.03728,-1.01674 2.788842,-2.47356 3.892365,-3.23737 1.103522,-0.76382 2.533925,-1.95694 3.178673,-2.65138 0.644748,-0.69444 2.491072,-2.20458 4.102943,-3.35586 1.61187,-1.15128 2.930673,-2.28817 2.930673,-2.52641 0,-0.23825 0.580273,-0.73338 1.289496,-1.10031 0.709223,-0.36692 2.2452,-1.5962 3.413286,-2.73173 1.168082,-1.13553 3.067158,-2.72195 4.22017,-3.52536 1.153006,-0.80343 2.982642,-2.26992 4.065851,-3.25888 2.622502,-2.39434 3.37366,-3.01704 5.208725,-4.31798 0.853215,-0.60487 2.246087,-1.81516 3.095267,-2.68954 0.84918,-0.87437 1.78641,-1.58977 2.08273,-1.58977 0.29632,0 0.53877,-0.211 0.53877,-0.4689 0,-0.2579 0.23426,-0.46891 0.52059,-0.46891 0.28632,0 1.45669,-0.94954 2.60082,-2.11009 1.14413,-1.16054 2.23528,-2.11008 2.42478,-2.11008 0.18951,0 1.45071,-1.05504 2.80266,-2.34454 1.35196,-1.2895 2.62436,-2.34454 2.82756,-2.34454 0.20319,0 0.78438,-0.36926 1.29153,-0.82059 3.94367,-3.50959 5.3993,-4.75191 7.00509,-5.97857 2.23121,-1.70441 5.33737,-4.39026 6.37189,-5.50966 0.4171,-0.45133 0.89822,-0.82059 1.06916,-0.82059 0.32163,0 5.54069,-4.19562 8.02708,-6.45298 0.77785,-0.7062 2.2549,-1.8986 3.28236,-2.64977 1.02744,-0.75117 2.5534,-2.06998 3.39101,-2.93068 0.83761,-0.86069 1.68164,-1.56827 1.87563,-1.57238 0.33872,-0.007 1.75333,-1.18003 5.27623,-4.3745 0.90265,-0.81849 2.1687,-1.83339 2.81345,-2.25533 0.64475,-0.42194 1.63821,-1.21124 2.20771,-1.754 0.56949,-0.54276 1.24104,-0.98684 1.49235,-0.98684 0.2513,0 0.57471,-0.37115 0.71869,-0.82478 0.14398,-0.45363 0.65635,-1.0339 1.1386,-1.2895 2.39591,-1.26981 4.89103,-3.21432 5.08723,-3.9646 0.12088,-0.46223 0.67667,-1.07561 1.23508,-1.36308 1.96494,-1.01152 2.90147,-1.72303 5.22972,-3.97316 1.29266,-1.24927 2.90543,-2.5605 3.58393,-2.91382 0.6785,-0.35333 1.73659,-1.23027 2.35131,-1.94876 0.61473,-0.71849 1.95866,-1.88269 2.98653,-2.58712 1.02787,-0.70443 2.50188,-1.83196 3.27558,-2.50561 0.7737,-0.67365 2.34486,-1.99638 3.49146,-2.93938 2.14965,-1.76794 4.98713,-4.20524 7.04562,-6.05196 0.64681,-0.58027 1.33261,-1.05504 1.52397,-1.05504 0.19137,0 1.1232,-0.75288 2.07073,-1.67306 0.94754,-0.92018 2.48119,-2.23898 3.40811,-2.93067 0.92693,-0.69169 1.96416,-1.52138 2.30495,-1.84375 0.3408,-0.32238 0.81557,-0.58614 1.05505,-0.58614 0.23947,0 0.43541,-0.27102 0.43541,-0.60226 0,-0.33124 0.62185,-0.9696 1.38189,-1.41856 0.76004,-0.44897 2.53045,-1.86602 3.93424,-3.149 1.40379,-1.28299 2.70133,-2.3327 2.88344,-2.3327 0.1821,0 1.72459,-1.2133 3.42775,-2.69622 4.61189,-4.01552 5.2216,-4.53651 8.47726,-7.24386 1.6442,-1.36729 3.46755,-2.80249 4.05191,-3.18934 2.52146,-1.66924 9.13595,-7.73805 9.13595,-8.38224 0,-0.20876 0.97892,-0.88304 2.17538,-1.4984 1.19646,-0.61536 2.592,-1.68235 3.1012,-2.37108 0.50921,-0.68873 1.74587,-1.62203 2.74816,-2.07399 1.00228,-0.45197 1.82233,-1.000723 1.82233,-1.219454 0,-0.218731 0.42201,-0.397693 0.93781,-0.397693 0.5158,0 0.93782,-0.211008 0.93782,-0.468907 0,-0.257899 0.3367,-0.468908 0.74824,-0.468908 0.41153,0 1.30831,-0.279868 1.99285,-0.621929 0.68454,-0.342061 1.9475,-0.975086 2.80657,-1.406723 2.03234,-1.021136 7.2244,-1.077013 8.04637,-0.08659 0.31871,0.384009 0.78662,0.570167 1.03981,0.413683 0.2532,-0.156483 1.06478,0.162353 1.80352,0.708525 0.73873,0.546171 1.45479,0.993039 1.59124,0.993039 0.13644,0 0.69812,0.369265 1.24816,0.820589 2.10721,1.729008 3.2308,3.195018 3.2308,4.215378 0,0.58291 0.21101,1.05984 0.46891,1.05984 0.2579,0 0.46891,0.51507 0.46891,1.14459 0,0.62953 0.18374,1.25816 0.40831,1.39695 0.22457,0.13879 0.53852,1.36454 0.69767,2.72389 0.59123,5.04997 0.69015,5.56201 1.19109,6.16561 0.3613,0.43535 0.5472,15.1676 0.63144,50.04131 l 0.11939,49.42431 163.86045,0.1179 c 108.30191,0.0779 164.01921,0.27665 164.32869,0.58613 0.25752,0.25753 1.03324,0.46824 1.7238,0.46824 0.69051,0 1.52141,0.32041 1.84641,0.71202 0.325,0.3916 1.34277,1.06878 2.26169,1.50483 3.81751,1.81153 8.98492,8.90028 8.98492,12.32569 0,0.73974 0.21101,1.47539 0.46891,1.63478 0.2579,0.15939 0.46891,1.15685 0.46891,2.21657 0,2.71754 0.95216,7.86494 1.45488,7.86494 0.24664,0 0.42075,31.01336 0.42075,74.95319 0,64.44985 -0.0951,75.14398 -0.67823,76.31472 -0.37301,0.74885 -0.81787,2.7331 -0.9886,4.40944 -0.17073,1.67635 -0.49854,3.24836 -0.72854,3.49336 -0.22995,0.24501 -0.41808,0.81779 -0.41808,1.27286 0,1.50031 -2.43086,5.27448 -5.00906,7.77706 -1.39485,1.35397 -2.73752,2.46177 -2.9837,2.46177 -0.24618,0 -0.44757,0.211 -0.44757,0.4689 0,0.2579 -0.39618,0.46891 -0.88042,0.46891 -0.4842,0 -1.14306,0.31651 -1.46412,0.70336 -0.32106,0.38685 -1.17846,0.70336 -1.90536,0.70336 -0.7269,0 -1.45207,0.211 -1.61145,0.4689 -0.1923,0.31113 -54.25215,0.46891 -160.65938,0.46891 -109.65009,0 -160.65643,0.15353 -161.27656,0.48541 -0.88787,0.47518 -0.90699,1.52262 -0.90699,49.67655 0,28.62503 -0.17635,49.30012 -0.4218,49.45181 -0.23198,0.14337 -0.6866,1.36913 -1.01026,2.7239 -0.32366,1.35476 -0.74319,2.77972 -0.93228,3.16656 -0.1891,0.38685 -0.94141,1.96942 -1.67181,3.5168 -0.73039,1.54741 -1.54536,3.039 -1.81104,3.31468 -1.34278,1.39328 -5.41701,3.85816 -7.28223,4.40569 -2.62531,0.77066 -7.9676,1.08124 -8.90925,0.51797 z"
     id="path5216"
     inkscape:connector-curvature="0" />
</svg>
